#!OML:ASF X:\für Bonn\!DataBase\2005_08_10_Bjorn_Final\c3d\bjorn.ASF
:FULLY-SPECIFIED
:DEGREES
564
root 0.103186 1.55616 20.3011 -284.823 -2.67586 -529.523
lowerback 19.1228 6.18849 0.112696
upperback 16.7521 5.05153 -4.41307
thorax 8.25965 1.05202 -5.72259
lowerneck 9.27912 5.13947 1.22866
upperneck 28.4155 3.62257 -3.05381
head 7.36963 -0.452924 -1.38301
rclavicle 3.18055e-015 -9.54166e-015
rhumerus 1.10696 -7.90167 -65.0877
rradius 23.5767
rwrist 23.4723
rhand -1.05637 6.76927
rfingers 7.12502
rthumb 24.5782 -21.673
lclavicle 3.18055e-015 -9.54166e-015
lhumerus 11.76 -0.349001 77.2999
lradius 13.3229
lwrist -55.4407
lhand -30.6041 -368.339
lfingers 7.12502
lthumb -3.90083 21.6049
rfemur 6.58117 -8.36445 9.55988
rtibia 19.7422
rfoot 23.5934 7.42528
rtoes -10.6222
lfemur -39.5144 11.8823 2.65303
ltibia 114.911
lfoot 27.7263 -7.11842
ltoes 7.46679
565
root 0.0970625 1.55253 20.3118 -284.537 -2.67409 -529.731
lowerback 18.732 5.97144 0.0412016
upperback 16.0673 4.9376 -4.64323
thorax 7.64382 1.10206 -5.8729
lowerneck 8.92037 4.97267 0.574228
upperneck 27.6778 3.68788 -3.65882
head 7.16866 -0.42677 -1.44427
rclavicle 1.27222e-014 8.26944e-014
rhumerus 0.274774 -5.71777 -64.3667
rradius 25.1832
rwrist 21.1713
rhand -1.11043 6.66917
rfingers 7.12502
rthumb 24.5264 -21.7801
lclavicle 1.27222e-014 8.26944e-014
lhumerus 10.7515 -4.9029 75.4589
lradius 14.5782
lwrist -51.0296
lhand -31.1954 -368.576
lfingers 7.12502
lthumb -4.47181 21.3569
rfemur 6.74678 -8.41495 9.57321
rtibia 18.8927
rfoot 23.2864 7.41608
rtoes -10.4811
lfemur -39.7025 12.4103 2.7333
ltibia 114.883
lfoot 27.884 -7.35608
ltoes 7.56223
566
root 0.0918613 1.54958 20.3245 -284.241 -2.66706 -529.946
lowerback 18.3495 5.76469 -0.0468592
upperback 15.4033 4.82463 -4.81966
thorax 7.05026 1.14085 -5.95803
lowerneck 8.51599 4.77403 -0.149946
upperneck 26.8424 3.70974 -4.22127
head 6.94343 -0.406938 -1.47679
rclavicle 3.18055e-015 -1.11319e-014
rhumerus -0.522018 -3.17359 -63.5049
rradius 26.9104
rwrist 18.5053
rhand -1.17571 6.51822
rfingers 7.12502
rthumb 24.4638 -21.9395
lclavicle 3.18055e-015 -1.11319e-014
lhumerus 9.84489 -8.91835 73.8946
lradius 15.8833
lwrist -47.2874
lhand -31.735 -368.785
lfingers 7.12502
lthumb -4.99283 21.1367
rfemur 6.87272 -8.46407 9.59092
rtibia 18.1228
rfoot 23.0304 7.40527
rtoes -10.5103
lfemur -39.8808 12.9285 2.80314
ltibia 114.843
lfoot 27.9973 -7.70329
ltoes 7.37492
567
root 0.0874466 1.54724 20.3382 -283.963 -2.62669 -530.188
lowerback 17.988 5.58149 -0.0845812
upperback 14.784 4.7312 -4.96322
thorax 6.51202 1.18148 -6.04274
lowerneck 8.07706 4.52506 -0.882034
upperneck 25.9122 3.6596 -4.72678
head 6.69461 -0.39976 -1.48809
rclavicle 8.26944e-014 -8.26944e-014
rhumerus -1.21643 -0.603684 -62.5857
rradius 28.672
rwrist 15.7215
rhand -1.27146 6.39322
rfingers 7.12502
rthumb 24.372 -22.0769
lclavicle 8.26944e-014 -8.26944e-014
lhumerus 9.03929 -12.8576 72.3869
lradius 17.3265
lwrist -43.844
lhand -32.3667 -368.793
lfingers 7.12502
lthumb -5.60278 21.1126
rfemur 6.992 -8.4638 9.65142
rtibia 17.4203
rfoot 22.8378 7.30784
rtoes -10.4116
lfemur -40.031 13.4594 2.93253
ltibia 114.792
lfoot 28.1514 -7.97556
ltoes 7.44399
568
root 0.0824924 1.54651 20.3528 -283.708 -2.54304 -530.435
lowerback 17.6061 5.39955 -0.0389543
upperback 14.2509 4.63204 -5.09373
thorax 6.09873 1.21376 -6.16294
lowerneck 7.50579 4.19632 -1.42467
upperneck 24.9865 3.53593 -5.37734
head 6.47814 -0.412761 -1.57981
rclavicle 2.8625e-014 -3.18055e-015
rhumerus -1.72781 1.78324 -61.6892
rradius 30.4157
rwrist 13.0475
rhand -1.38827 6.30822
rfingers 7.12502
rthumb 24.26 -22.1769
lclavicle 2.8625e-014 -3.18055e-015
lhumerus 8.41273 -16.4528 70.9324
lradius 18.8313
lwrist -40.9034
lhand -33.1312 -368.683
lfingers 7.12502
lthumb -6.34088 21.2018
rfemur 7.12442 -8.48249 9.7381
rtibia 16.776
rfoot 22.7033 7.18772
rtoes -10.0499
lfemur -40.1421 13.9732 3.12029
ltibia 114.738
lfoot 28.2936 -8.28404
ltoes 7.38827
569
root 0.0778813 1.54578 20.3673 -283.468 -2.41409 -530.709
lowerback 17.2246 5.23592 0.0602914
upperback 13.7868 4.54832 -5.1875
thorax 5.77279 1.24623 -6.27831
lowerneck 6.84396 3.78147 -1.70464
upperneck 23.9569 3.35168 -6.28113
head 6.25269 -0.432531 -1.79637
rclavicle 8.26944e-014 -1.66979e-013
rhumerus -2.13677 3.89477 -60.8103
rradius 32.2059
rwrist 10.5841
rhand -1.52802 6.21617
rfingers 7.12502
rthumb 24.126 -22.2868
lclavicle 8.26944e-014 -1.66979e-013
lhumerus 7.92688 -19.8817 69.4873
lradius 20.422
lwrist -38.1047
lhand -34.0046 -368.535
lfingers 7.12502
lthumb -7.18398 21.3232
rfemur 7.24861 -8.48236 9.87516
rtibia 16.1636
rfoot 22.6291 6.98178
rtoes -9.60873
lfemur -40.2294 14.5022 3.38391
ltibia 114.687
lfoot 28.4308 -8.61375
ltoes 7.29984
570
root 0.0729635 1.54682 20.3835 -283.238 -2.30159 -530.994
lowerback 16.8699 5.07734 0.105531
upperback 13.3238 4.46085 -5.23687
thorax 5.42677 1.26759 -6.31685
lowerneck 6.32355 3.38558 -2.01468
upperneck 22.6426 3.15581 -7.07232
head 5.91305 -0.424614 -1.96571
rclavicle 5.725e-014 5.88403e-014
rhumerus -2.55437 5.77301 -59.9308
rradius 34.0406
rwrist 8.48969
rhand -1.67453 6.25033
rfingers 7.12502
rthumb 23.9855 -22.2712
lclavicle 5.725e-014 5.88403e-014
lhumerus 7.42488 -22.8911 68.202
lradius 22.0144
lwrist -35.6237
lhand -34.9179 -368.442
lfingers 7.12502
lthumb -8.0655 21.384
rfemur 7.35551 -8.50966 9.98073
rtibia 15.5975
rfoot 22.6343 6.8985
rtoes -9.4258
lfemur -40.2702 15.0058 3.61495
ltibia 114.615
lfoot 28.5607 -8.91378
ltoes 7.26147
571
root 0.069782 1.54863 20.3999 -283.023 -2.18441 -531.279
lowerback 16.5256 4.93376 0.139717
upperback 12.8947 4.38213 -5.26659
thorax 5.11538 1.28567 -6.33137
lowerneck 6.05274 3.03572 -2.42715
upperneck 20.9521 2.93338 -7.4991
head 5.41187 -0.374398 -1.99578
rclavicle 3.18055e-015 8.74653e-015
rhumerus -2.98271 7.33458 -59.1044
rradius 35.9041
rwrist 6.8168
rhand -1.831 6.47779
rfingers 7.12502
rthumb 23.8355 -22.0634
lclavicle 3.18055e-015 8.74653e-015
lhumerus 6.98887 -25.6314 66.9675
lradius 23.6132
lwrist -33.3107
lhand -35.8086 -368.305
lfingers 7.12502
lthumb -8.92509 21.486
rfemur 7.45357 -8.49386 10.098
rtibia 15.0875
rfoot 22.6987 6.63599
rtoes -8.99368
lfemur -40.2899 15.4795 3.86238
ltibia 114.538
lfoot 28.6983 -9.16805
ltoes 7.34871
572
root 0.0656225 1.54964 20.4161 -282.802 -2.0779 -531.547
lowerback 16.2022 4.78731 0.182685
upperback 12.4704 4.29585 -5.28809
thorax 4.80111 1.29761 -6.34366
lowerneck 5.71856 2.68756 -2.81716
upperneck 19.3235 2.6764 -7.82061
head 4.94711 -0.34117 -2.00113
rclavicle 5.08889e-014 -3.49861e-014
rhumerus -3.4212 8.56391 -58.331
rradius 37.7512
rwrist 5.62447
rhand -1.97215 6.99248
rfingers 7.12502
rthumb 23.7001 -21.5663
lclavicle 5.08889e-014 -3.49861e-014
lhumerus 6.57405 -28.2689 65.7325
lradius 25.2623
lwrist -31.0649
lhand -36.6787 -368.095
lfingers 7.12502
lthumb -9.76464 21.6589
rfemur 7.52047 -8.48113 10.198
rtibia 14.6283
rfoot 22.7981 6.41996
rtoes -8.73005
lfemur -40.3375 15.9366 4.07491
ltibia 114.466
lfoot 28.8245 -9.42415
ltoes 7.24406
573
root 0.0628613 1.55094 20.4308 -282.62 -2.00105 -531.789
lowerback 15.9055 4.65485 0.20266
upperback 12.1059 4.21147 -5.29973
thorax 4.53995 1.30074 -6.33597
lowerneck 5.30337 2.31478 -3.20249
upperneck 17.6916 2.36408 -8.05878
head 4.49927 -0.331276 -1.98505
rclavicle 3.49861e-014 -4.77083e-015
rhumerus -3.80461 9.49774 -57.5945
rradius 39.5496
rwrist 4.65518
rhand -2.05998 7.65095
rfingers 7.12502
rthumb 23.6159 -20.9188
lclavicle 3.49861e-014 -4.77083e-015
lhumerus 6.22203 -30.8245 64.4388
lradius 27.0249
lwrist -28.8916
lhand -37.4751 -367.74
lfingers 7.12502
lthumb -10.5329 21.9764
rfemur 7.6199 -8.51936 10.2386
rtibia 14.2052
rfoot 22.9923 6.21751
rtoes -8.06687
lfemur -40.3428 16.3444 4.25021
ltibia 114.384
lfoot 28.9349 -9.69066
ltoes 7.15334
574
root 0.0601291 1.55228 20.4455 -282.438 -1.94288 -532.036
lowerback 15.5776 4.52915 0.20707
upperback 11.7956 4.12729 -5.30385
thorax 4.35557 1.298 -6.3111
lowerneck 4.92012 1.9463 -3.66885
upperneck 15.6981 1.96129 -7.9925
head 4.39663 -0.329865 -2.09264
rclavicle -5.08889e-014 9.06458e-014
rhumerus -4.10563 10.2033 -56.8976
rradius 41.3165
rwrist 3.74875
rhand -2.00611 8.30292
rfingers 7.12502
rthumb 23.6675 -20.2601
lclavicle -5.08889e-014 9.06458e-014
lhumerus 5.87293 -33.1405 63.1198
lradius 28.8758
lwrist -27.0246
lhand -38.1855 -367.311
lfingers 7.12502
lthumb -11.2181 22.3693
rfemur 7.69139 -8.55179 10.2636
rtibia 13.8386
rfoot 23.2263 6.04314
rtoes -7.44223
lfemur -40.3549 16.75 4.39961
ltibia 114.308
lfoot 29.0392 -9.93644
ltoes 6.97589
575
root 0.0573957 1.55444 20.459 -282.274 -1.86613 -532.281
lowerback 15.2841 4.41026 0.255867
upperback 11.4961 4.05074 -5.30373
thorax 4.17192 1.29885 -6.31058
lowerneck 4.23646 1.56074 -3.99773
upperneck 14.3856 1.61221 -8.05211
head 4.03075 -0.366615 -2.0217
rclavicle -6.99722e-014 4.69132e-014
rhumerus -4.44781 10.7108 -56.2825
rradius 43.119
rwrist 2.75417
rhand -1.84638 8.71353
rfingers 7.12502
rthumb 23.8207 -19.8296
lclavicle -6.99722e-014 4.69132e-014
lhumerus 5.49992 -35.2405 61.8413
lradius 30.7645
lwrist -25.453
lhand -38.7421 -366.971
lfingers 7.12502
lthumb -11.7549 22.6793
rfemur 7.78185 -8.57898 10.3018
rtibia 13.4907
rfoot 23.5273 5.79148
rtoes -6.71527
lfemur -40.3377 17.1428 4.58555
ltibia 114.236
lfoot 29.1016 -10.1868
ltoes 6.74141
576
root 0.0554982 1.55551 20.471 -282.111 -1.83348 -532.503
lowerback 15.041 4.30052 0.292117
upperback 11.1806 3.97814 -5.3256
thorax 3.94702 1.29886 -6.33082
lowerneck 3.5747 1.17409 -4.27063
upperneck 13.2011 1.23611 -8.03289
head 3.71558 -0.429538 -1.94164
rclavicle 0 9.93923e-014
rhumerus -4.80302 11.0783 -55.7426
rradius 44.8639
rwrist 1.78912
rhand -1.68459 8.94568
rfingers 7.12502
rthumb 23.9759 -19.5771
lclavicle 0 9.93923e-014
lhumerus 5.18109 -37.2072 60.5705
lradius 32.5814
lwrist -24.1148
lhand -39.2073 -366.672
lfingers 7.12502
lthumb -12.2035 22.952
rfemur 7.86676 -8.64557 10.2806
rtibia 13.1399
rfoot 23.9241 5.43622
rtoes -5.76058
lfemur -40.3535 17.5033 4.69824
ltibia 114.173
lfoot 29.1142 -10.4352
ltoes 6.25955
